<svg width="28" height="28" viewBox="0 0 28 28" fill="none" xmlns="http://www.w3.org/2000/svg">
<path d="M26.6004 1.4197C25.8204 0.639698 24.5604 0.639698 23.7804 1.4197L14.0004 11.1797L4.22043 1.3997C3.44043 0.619697 2.18043 0.619697 1.40043 1.3997C0.62043 2.1797 0.62043 3.4397 1.40043 4.2197L11.1804 13.9997L1.40043 23.7797C0.62043 24.5597 0.62043 25.8197 1.40043 26.5997C2.18043 27.3797 3.44043 27.3797 4.22043 26.5997L14.0004 16.8197L23.7804 26.5997C24.5604 27.3797 25.8204 27.3797 26.6004 26.5997C27.3804 25.8197 27.3804 24.5597 26.6004 23.7797L16.8204 13.9997L26.6004 4.2197C27.3604 3.4597 27.3604 2.1797 26.6004 1.4197Z" fill="#EB3223"/>
</svg>
