<svg width="18" height="22" viewBox="0 0 18 22" fill="none" xmlns="http://www.w3.org/2000/svg">
<path d="M15.1798 7.73962H14.1451V5.731C14.1451 2.95912 11.8273 0.709473 8.97157 0.709473C6.1158 0.709473 3.79807 2.95912 3.79807 5.731V7.73962H2.76337C1.6252 7.73962 0.69397 8.64349 0.69397 9.74823V19.7913C0.69397 20.896 1.6252 21.7999 2.76337 21.7999H15.1798C16.3179 21.7999 17.2492 20.896 17.2492 19.7913V9.74823C17.2492 8.64349 16.3179 7.73962 15.1798 7.73962ZM8.97157 16.7784C7.8334 16.7784 6.90217 15.8745 6.90217 14.7698C6.90217 13.665 7.8334 12.7611 8.97157 12.7611C10.1097 12.7611 11.041 13.665 11.041 14.7698C11.041 15.8745 10.1097 16.7784 8.97157 16.7784ZM12.1791 7.73962H5.764V5.731C5.764 4.01364 7.20223 2.61765 8.97157 2.61765C10.7409 2.61765 12.1791 4.01364 12.1791 5.731V7.73962Z" fill="#A4A2A2"/>
</svg>
