<svg width="18" height="19" viewBox="0 0 18 19" fill="none" xmlns="http://www.w3.org/2000/svg">
<path d="M3.62 8.4277C5.06 11.2577 7.38 13.5677 10.21 15.0177L12.41 12.8177C12.68 12.5477 13.08 12.4577 13.43 12.5777C14.55 12.9477 15.76 13.1477 17 13.1477C17.55 13.1477 18 13.5977 18 14.1477V17.6377C18 18.1877 17.55 18.6377 17 18.6377C7.61 18.6377 0 11.0277 0 1.6377C0 1.0877 0.45 0.637695 1 0.637695H4.5C5.05 0.637695 5.5 1.0877 5.5 1.6377C5.5 2.8877 5.7 4.0877 6.07 5.2077C6.18 5.5577 6.1 5.9477 5.82 6.2277L3.62 8.4277Z" fill="#A4A2A2"/>
</svg>
