<svg width="48" height="48" viewBox="0 0 48 48" fill="none" xmlns="http://www.w3.org/2000/svg">
<g clip-path="url(#clip0_85_5749)">
<path d="M38.2802 25.88C38.3602 25.28 38.4002 24.66 38.4002 24C38.4002 23.3601 38.3602 22.72 38.2602 22.12L42.3202 18.96C42.6802 18.68 42.7802 18.14 42.5602 17.74L38.7202 11.1C38.4802 10.66 37.9802 10.52 37.5402 10.66L32.7602 12.58C31.7602 11.82 30.7002 11.18 29.5202 10.7L28.8002 5.62005C28.7202 5.14005 28.3202 4.80005 27.8402 4.80005H20.1602C19.6802 4.80005 19.3002 5.14005 19.2202 5.62005L18.5002 10.7C17.3202 11.18 16.2402 11.84 15.2602 12.58L10.4802 10.66C10.0402 10.5 9.54022 10.66 9.30022 11.1L5.48022 17.74C5.24022 18.16 5.32022 18.68 5.72022 18.96L9.78022 22.12C9.68022 22.72 9.60022 23.38 9.60022 24C9.60022 24.6201 9.64022 25.28 9.74022 25.88L5.68022 29.0401C5.32022 29.3201 5.22022 29.86 5.44022 30.26L9.28022 36.9001C9.52022 37.34 10.0202 37.48 10.4602 37.34L15.2402 35.42C16.2402 36.18 17.3002 36.82 18.4802 37.3L19.2002 42.3801C19.3002 42.8601 19.6802 43.2001 20.1602 43.2001H27.8402C28.3202 43.2001 28.7202 42.8601 28.7802 42.3801L29.5002 37.3C30.6802 36.82 31.7602 36.18 32.7402 35.42L37.5202 37.34C37.9602 37.5 38.4602 37.34 38.7002 36.9001L42.5402 30.26C42.7802 29.82 42.6802 29.3201 42.3002 29.0401L38.2802 25.88ZM24.0002 31.2001C20.0402 31.2001 16.8002 27.96 16.8002 24C16.8002 20.04 20.0402 16.8 24.0002 16.8C27.9602 16.8 31.2002 20.04 31.2002 24C31.2002 27.96 27.9602 31.2001 24.0002 31.2001Z" fill="#424242"/>
</g>
<defs>
<clipPath id="clip0_85_5749">
<rect width="48" height="48" fill="white"/>
</clipPath>
</defs>
</svg>
